{
	"asset":{
		"generator":"Khronos glTF Blender I/O v5.0.21",
		"version":"2.0"
	},
	"scene":0,
	"scenes":[
		{
			"name":"Scene",
			"nodes":[
				0
			]
		}
	],
	"nodes":[
		{
			"mesh":0,
			"name":"Cube",
			"scale":[
				0.5,
				0.5,
				0.5
			]
		}
	],
	"materials":[
		{
			"doubleSided":true,
			"name":"Material",
			"pbrMetallicRoughness":{
				"baseColorTexture":{
					"index":0
				},
				"metallicFactor":0,
				"roughnessFactor":0.5
			}
		}
	],
	"meshes":[
		{
			"name":"Cube",
			"primitives":[
				{
					"attributes":{
						"POSITION":0,
						"NORMAL":1,
						"TEXCOORD_0":2
					},
					"indices":3,
					"material":0
				}
			]
		}
	],
	"textures":[
		{
			"sampler":0,
			"source":0
		}
	],
	"images":[
		{
			"mimeType":"image/png",
			"name":"Material_Base_Color",
			"uri":"textures/Material_Base_Color.png"
		}
	],
	"accessors":[
		{
			"bufferView":0,
			"componentType":5126,
			"count":9920,
			"max":[
				0.9740713238716125,
				4.824983596801758,
				20.975154876708984
			],
			"min":[
				-0.9740713238716125,
				-0.9915361404418945,
				-20.969688415527344
			],
			"type":"VEC3"
		},
		{
			"bufferView":1,
			"componentType":5126,
			"count":9920,
			"type":"VEC3"
		},
		{
			"bufferView":2,
			"componentType":5126,
			"count":9920,
			"type":"VEC2"
		},
		{
			"bufferView":3,
			"componentType":5123,
			"count":16896,
			"type":"SCALAR"
		}
	],
	"bufferViews":[
		{
			"buffer":0,
			"byteLength":119040,
			"byteOffset":0,
			"target":34962
		},
		{
			"buffer":0,
			"byteLength":119040,
			"byteOffset":119040,
			"target":34962
		},
		{
			"buffer":0,
			"byteLength":79360,
			"byteOffset":238080,
			"target":34962
		},
		{
			"buffer":0,
			"byteLength":33792,
			"byteOffset":317440,
			"target":34963
		}
	],
	"samplers":[
		{
			"magFilter":9729,
			"minFilter":9987
		}
	],
	"buffers":[
		{
			"byteLength":351232,
			"uri":"spinner.bin"
		}
	]
}
