{
	"asset":{
		"generator":"Khronos glTF Blender I/O v5.0.21",
		"version":"2.0"
	},
	"scene":0,
	"scenes":[
		{
			"name":"Scene",
			"nodes":[
				0
			]
		}
	],
	"nodes":[
		{
			"mesh":0,
			"name":"Wheel.002",
			"rotation":[
				0,
				0,
				0.7071068286895752,
				0.7071068286895752
			],
			"translation":[
				2,
				0,
				-3
			]
		}
	],
	"materials":[
		{
			"doubleSided":true,
			"name":"Material.004",
			"pbrMetallicRoughness":{
				"baseColorTexture":{
					"index":0
				},
				"metallicFactor":0,
				"roughnessFactor":0.5
			}
		}
	],
	"meshes":[
		{
			"name":"Cylinder.008",
			"primitives":[
				{
					"attributes":{
						"POSITION":0,
						"NORMAL":1,
						"TEXCOORD_0":2
					},
					"indices":3,
					"material":0
				}
			]
		}
	],
	"textures":[
		{
			"sampler":0,
			"source":0
		}
	],
	"images":[
		{
			"mimeType":"image/png",
			"name":"Wheel_Base_Color",
			"uri":"textures/Wheel_Base_Color.png"
		}
	],
	"accessors":[
		{
			"bufferView":0,
			"componentType":5126,
			"count":466,
			"max":[
				1,
				0.5,
				1
			],
			"min":[
				-1,
				-0.5,
				-1
			],
			"type":"VEC3"
		},
		{
			"bufferView":1,
			"componentType":5126,
			"count":466,
			"type":"VEC3"
		},
		{
			"bufferView":2,
			"componentType":5126,
			"count":466,
			"type":"VEC2"
		},
		{
			"bufferView":3,
			"componentType":5123,
			"count":804,
			"type":"SCALAR"
		}
	],
	"bufferViews":[
		{
			"buffer":0,
			"byteLength":5592,
			"byteOffset":0,
			"target":34962
		},
		{
			"buffer":0,
			"byteLength":5592,
			"byteOffset":5592,
			"target":34962
		},
		{
			"buffer":0,
			"byteLength":3728,
			"byteOffset":11184,
			"target":34962
		},
		{
			"buffer":0,
			"byteLength":1608,
			"byteOffset":14912,
			"target":34963
		}
	],
	"samplers":[
		{
			"magFilter":9729,
			"minFilter":9987
		}
	],
	"buffers":[
		{
			"byteLength":16520,
			"uri":"wheel.bin"
		}
	]
}
