{
	"asset":{
		"generator":"Khronos glTF Blender I/O v5.0.21",
		"version":"2.0"
	},
	"scene":0,
	"scenes":[
		{
			"name":"Scene",
			"nodes":[
				0
			]
		}
	],
	"nodes":[
		{
			"mesh":0,
			"name":"Cone.001"
		}
	],
	"materials":[
		{
			"doubleSided":true,
			"name":"Material.001",
			"pbrMetallicRoughness":{
				"baseColorTexture":{
					"index":0
				},
				"metallicFactor":0,
				"roughnessFactor":0.5
			}
		}
	],
	"meshes":[
		{
			"name":"Cone.002",
			"primitives":[
				{
					"attributes":{
						"POSITION":0,
						"NORMAL":1,
						"TEXCOORD_0":2
					},
					"indices":3,
					"material":0
				}
			]
		}
	],
	"textures":[
		{
			"sampler":0,
			"source":0
		}
	],
	"images":[
		{
			"mimeType":"image/png",
			"name":"BananaColor",
			"uri":"textures/BananaColor.png"
		}
	],
	"accessors":[
		{
			"bufferView":0,
			"componentType":5126,
			"count":7680,
			"max":[
				1.7274459600448608,
				0.982501745223999,
				1.6842308044433594
			],
			"min":[
				-1.336024522781372,
				-0.964576005935669,
				-1.712805151939392
			],
			"type":"VEC3"
		},
		{
			"bufferView":1,
			"componentType":5126,
			"count":7680,
			"type":"VEC3"
		},
		{
			"bufferView":2,
			"componentType":5126,
			"count":7680,
			"type":"VEC2"
		},
		{
			"bufferView":3,
			"componentType":5123,
			"count":11520,
			"type":"SCALAR"
		}
	],
	"bufferViews":[
		{
			"buffer":0,
			"byteLength":92160,
			"byteOffset":0,
			"target":34962
		},
		{
			"buffer":0,
			"byteLength":92160,
			"byteOffset":92160,
			"target":34962
		},
		{
			"buffer":0,
			"byteLength":61440,
			"byteOffset":184320,
			"target":34962
		},
		{
			"buffer":0,
			"byteLength":23040,
			"byteOffset":245760,
			"target":34963
		}
	],
	"samplers":[
		{
			"magFilter":9729,
			"minFilter":9987
		}
	],
	"buffers":[
		{
			"byteLength":268800,
			"uri":"banana.bin"
		}
	]
}
