{
	"asset":{
		"generator":"Khronos glTF Blender I/O v5.1.18",
		"version":"2.0"
	},
	"scene":0,
	"scenes":[
		{
			"name":"Scene",
			"nodes":[
				0
			]
		}
	],
	"nodes":[
		{
			"mesh":0,
			"name":"Cube"
		}
	],
	"materials":[
		{
			"doubleSided":true,
			"name":"Material",
			"pbrMetallicRoughness":{
				"baseColorTexture":{
					"index":0
				},
				"metallicFactor":0,
				"roughnessFactor":0.5
			}
		}
	],
	"meshes":[
		{
			"name":"Cube",
			"primitives":[
				{
					"attributes":{
						"POSITION":0,
						"NORMAL":1,
						"TEXCOORD_0":2
					},
					"indices":3,
					"material":0
				}
			]
		}
	],
	"textures":[
		{
			"sampler":0,
			"source":0
		}
	],
	"images":[
		{
			"mimeType":"image/png",
			"name":"Material_Base_Color",
			"uri":"textures/Material_Base_Color.png"
		}
	],
	"accessors":[
		{
			"bufferView":0,
			"componentType":5126,
			"count":432372,
			"max":[
				1.000000238418579,
				0.9987515807151794,
				2.000070095062256
			],
			"min":[
				-1.0000001192092896,
				-1.0000001192092896,
				-2.0000476837158203
			],
			"type":"VEC3"
		},
		{
			"bufferView":1,
			"componentType":5126,
			"count":432372,
			"type":"VEC3"
		},
		{
			"bufferView":2,
			"componentType":5126,
			"count":432372,
			"type":"VEC2"
		},
		{
			"bufferView":3,
			"componentType":5125,
			"count":716544,
			"type":"SCALAR"
		}
	],
	"bufferViews":[
		{
			"buffer":0,
			"byteLength":5188464,
			"byteOffset":0,
			"target":34962
		},
		{
			"buffer":0,
			"byteLength":5188464,
			"byteOffset":5188464,
			"target":34962
		},
		{
			"buffer":0,
			"byteLength":3458976,
			"byteOffset":10376928,
			"target":34962
		},
		{
			"buffer":0,
			"byteLength":2866176,
			"byteOffset":13835904,
			"target":34963
		}
	],
	"samplers":[
		{
			"magFilter":9729,
			"minFilter":9987
		}
	],
	"buffers":[
		{
			"byteLength":16702080,
			"uri":"dumpster.bin"
		}
	]
}
