{
	"asset":{
		"generator":"Khronos glTF Blender I/O v5.1.18",
		"version":"2.0"
	},
	"scene":0,
	"scenes":[
		{
			"name":"Scene",
			"nodes":[
				0
			]
		}
	],
	"nodes":[
		{
			"mesh":0,
			"name":"Cube"
		},
		{
			"mesh":1,
			"name":"Cube.001",
			"rotation":[
				0,
				0,
				0.09820646047592163,
				0.9951660633087158
			],
			"scale":[
				1,
				0.05000000074505806,
				1
			],
			"translation":[
				-0.050188206136226654,
				1.2395654916763306,
				-0.957943856716156
			]
		},
		{
			"mesh":2,
			"name":"Cube.002",
			"scale":[
				1,
				0.05000000074505806,
				1
			],
			"translation":[
				0,
				1.0499999523162842,
				1
			]
		},
		{
			"mesh":3,
			"name":"Bag.001",
			"scale":[
				0.15745966136455536,
				0.15745966136455536,
				0.15745966136455536
			],
			"translation":[
				-0.7646143436431885,
				-0.6276837587356567,
				0.9613059759140015
			]
		},
		{
			"mesh":4,
			"name":"Bag.002",
			"scale":[
				0.15985451638698578,
				0.15985451638698578,
				0.15985451638698578
			],
			"translation":[
				-0.1436612606048584,
				-0.6352482438087463,
				1.7441142797470093
			]
		},
		{
			"mesh":5,
			"name":"Bag.004",
			"scale":[
				0.03338566794991493,
				0.03338566794991493,
				0.03338566794991493
			],
			"translation":[
				0.8278382420539856,
				-0.523470401763916,
				0.6996715068817139
			]
		},
		{
			"mesh":6,
			"name":"Bag.005",
			"scale":[
				0.22988492250442505,
				0.22988492250442505,
				0.22988492250442505
			],
			"translation":[
				0.28904488682746887,
				0.04911302030086517,
				0.2690984010696411
			]
		},
		{
			"mesh":7,
			"name":"Bag.006",
			"scale":[
				0.07438246160745621,
				0.07438246160745621,
				0.07438246160745621
			],
			"translation":[
				0.7844927906990051,
				-0.10208743065595627,
				-0.3370770215988159
			]
		},
		{
			"mesh":8,
			"name":"Bag.007",
			"scale":[
				0.07438246160745621,
				0.07438246160745621,
				0.07438246160745621
			],
			"translation":[
				-0.3199308514595032,
				0.16137146949768066,
				-0.16119177639484406
			]
		},
		{
			"mesh":9,
			"name":"Bag.008",
			"scale":[
				0.07438246160745621,
				0.07438246160745621,
				0.07438246160745621
			],
			"translation":[
				0.19443942606449127,
				0.18536889553070068,
				-0.870367169380188
			]
		},
		{
			"mesh":10,
			"name":"Bag.009",
			"scale":[
				0.07438246160745621,
				0.07438246160745621,
				0.07438246160745621
			],
			"translation":[
				-0.780471682548523,
				0.8422869443893433,
				-1.5393309593200684
			]
		},
		{
			"mesh":11,
			"name":"Bag.010",
			"scale":[
				0.07438246160745621,
				0.07438246160745621,
				0.07438246160745621
			],
			"translation":[
				-0.6233443021774292,
				0.8446168899536133,
				-1.679640293121338
			]
		},
		{
			"mesh":12,
			"name":"Bag.011",
			"scale":[
				0.09338086098432541,
				0.09338086098432541,
				0.09338086098432541
			],
			"translation":[
				-0.3562107980251312,
				0.8663343191146851,
				-1.397775650024414
			]
		},
		{
			"mesh":13,
			"name":"Bag.012",
			"scale":[
				0.09338086098432541,
				0.09338086098432541,
				0.09338086098432541
			],
			"translation":[
				0.18940243124961853,
				0.8663343191146851,
				-1.2823771238327026
			]
		},
		{
			"mesh":14,
			"name":"Bag.013",
			"scale":[
				0.0832771435379982,
				0.0832771435379982,
				0.0832771435379982
			],
			"translation":[
				0.2846897542476654,
				0.8576954007148743,
				-1.514665961265564
			]
		},
		{
			"mesh":15,
			"name":"Bag.014",
			"scale":[
				0.05835467576980591,
				0.05835467576980591,
				0.05835467576980591
			],
			"translation":[
				-0.4476050138473511,
				0.8336434364318848,
				-0.9528382420539856
			]
		},
		{
			"mesh":16,
			"name":"Bag.015",
			"scale":[
				0.14815539121627808,
				0.14815539121627808,
				0.14815539121627808
			],
			"translation":[
				0.02211003378033638,
				0.9268280863761902,
				-1.4877036809921265
			]
		},
		{
			"mesh":17,
			"name":"Bag.016",
			"scale":[
				0.06410209089517593,
				0.06410209089517593,
				0.06410209089517593
			],
			"translation":[
				0.0022649746388196945,
				0.8376787304878235,
				-1.2653274536132812
			]
		},
		{
			"mesh":18,
			"name":"Bag.017",
			"scale":[
				0.06410209089517593,
				0.06410209089517593,
				0.06410209089517593
			],
			"translation":[
				0.39118117094039917,
				0.8376786708831787,
				-1.0956112146377563
			]
		},
		{
			"mesh":19,
			"name":"Bag.018",
			"scale":[
				0.06410209089517593,
				0.06410209089517593,
				0.06410209089517593
			],
			"translation":[
				0.5587338209152222,
				0.8362597227096558,
				-1.731696367263794
			]
		},
		{
			"mesh":20,
			"name":"Bag.019",
			"scale":[
				0.09338086098432541,
				0.09338086098432541,
				0.09338086098432541
			],
			"translation":[
				-0.13777422904968262,
				0.8663343191146851,
				-1.754817008972168
			]
		},
		{
			"mesh":21,
			"name":"Bag.020",
			"scale":[
				0.09338086098432541,
				0.09338086098432541,
				0.09338086098432541
			],
			"translation":[
				0.263090580701828,
				0.8663343191146851,
				-1.7672985792160034
			]
		},
		{
			"mesh":22,
			"name":"Bag.021",
			"scale":[
				0.09338086098432541,
				0.09338086098432541,
				0.09338086098432541
			],
			"translation":[
				-0.7713483572006226,
				0.8663343191146851,
				-1.7737864255905151
			]
		},
		{
			"mesh":23,
			"name":"Bag.022",
			"scale":[
				0.029780112206935883,
				0.029780112206935883,
				0.029780112206935883
			],
			"translation":[
				-0.2619243860244751,
				0.8020029067993164,
				-0.9462168216705322
			]
		},
		{
			"mesh":24,
			"name":"Bag.023",
			"scale":[
				0.029780112206935883,
				0.029780112206935883,
				0.029780112206935883
			],
			"translation":[
				-0.0937940776348114,
				0.8020029067993164,
				-0.9534716010093689
			]
		},
		{
			"mesh":25,
			"name":"Bag.024",
			"scale":[
				0.029780112206935883,
				0.029780112206935883,
				0.029780112206935883
			],
			"translation":[
				0.35390928387641907,
				0.8020029067993164,
				-0.948185384273529
			]
		},
		{
			"mesh":26,
			"name":"Bag.025",
			"scale":[
				0.05835467576980591,
				0.05835467576980591,
				0.05835467576980591
			],
			"translation":[
				0.040745049715042114,
				0.8347023725509644,
				-0.9681267142295837
			]
		},
		{
			"mesh":27,
			"name":"Bag.026",
			"scale":[
				0.09338086098432541,
				0.09338086098432541,
				0.09338086098432541
			],
			"translation":[
				-0.2445518672466278,
				0.8663343191146851,
				-1.1042424440383911
			]
		},
		{
			"mesh":28,
			"name":"Bag.027",
			"rotation":[
				0,
				0.5154423713684082,
				0,
				0.8569242358207703
			],
			"scale":[
				0.05835467576980591,
				0.05835467576980591,
				0.05835467576980591
			],
			"translation":[
				-0.5637275576591492,
				0.8267602920532227,
				-1.474259853363037
			]
		},
		{
			"mesh":29,
			"name":"Bag.028",
			"scale":[
				0.09338086098432541,
				0.09338086098432541,
				0.09338086098432541
			],
			"translation":[
				-0.30708688497543335,
				0.8663343191146851,
				-1.6029307842254639
			]
		},
		{
			"mesh":30,
			"name":"Bag.029",
			"scale":[
				0.07438246160745621,
				0.07438246160745621,
				0.07438246160745621
			],
			"translation":[
				-0.4124920964241028,
				0.8446168899536133,
				-1.7688384056091309
			]
		},
		{
			"mesh":31,
			"name":"Bag.030",
			"scale":[
				0.07438246160745621,
				0.07438246160745621,
				0.07438246160745621
			],
			"translation":[
				-0.532207727432251,
				0.8422869443893433,
				-1.187724232673645
			]
		},
		{
			"mesh":32,
			"name":"Bag.031",
			"scale":[
				0.0832771435379982,
				0.0832771435379982,
				0.0832771435379982
			],
			"translation":[
				0.5882161855697632,
				0.8563622236251831,
				-1.5688585042953491
			]
		},
		{
			"mesh":33,
			"name":"Bag.032",
			"scale":[
				0.11055845767259598,
				0.11055845767259598,
				0.11055845767259598
			],
			"translation":[
				0.7974233627319336,
				0.8870957493782043,
				-1.6376482248306274
			]
		},
		{
			"mesh":34,
			"name":"Bag.033",
			"scale":[
				0.06410209089517593,
				0.06410209089517593,
				0.06410209089517593
			],
			"translation":[
				0.7396267652511597,
				0.8376786708831787,
				-0.9788550138473511
			]
		},
		{
			"mesh":35,
			"name":"Bag.034",
			"scale":[
				0.09338086098432541,
				0.09338086098432541,
				0.09338086098432541
			],
			"translation":[
				0.6228008270263672,
				0.8663343191146851,
				-1.147500991821289
			]
		},
		{
			"mesh":36,
			"name":"Bag.035",
			"scale":[
				0.15985451638698578,
				0.15985451638698578,
				0.15985451638698578
			],
			"translation":[
				-0.1436612606048584,
				-0.6352482438087463,
				1.7441142797470093
			]
		},
		{
			"mesh":37,
			"name":"Car",
			"rotation":[
				0,
				-1,
				0,
				4.371138828673793e-08
			]
		}
	],
	"materials":[
		{
			"doubleSided":true,
			"name":"Material",
			"pbrMetallicRoughness":{
				"baseColorTexture":{
					"index":0
				},
				"metallicFactor":0,
				"roughnessFactor":0.5
			}
		}
	],
	"meshes":[
		{
			"name":"Cube",
			"primitives":[
				{
					"attributes":{
						"POSITION":0,
						"NORMAL":1,
						"TEXCOORD_0":2
					},
					"indices":3,
					"material":0
				}
			]
		}
	],
	"textures":[
		{
			"sampler":0,
			"source":0
		}
	],
	"images":[
		{
			"mimeType":"image/png",
			"name":"Material_Base_Color",
			"uri":"textures/Material_Base_Color.png"
		}
	],
	"accessors":[
		{
			"bufferView":0,
			"componentType":5126,
			"count":432372,
			"max":[
				1.000000238418579,
				0.9987515807151794,
				2.000070095062256
			],
			"min":[
				-1.0000001192092896,
				-1.0000001192092896,
				-2.0000476837158203
			],
			"type":"VEC3"
		},
		{
			"bufferView":1,
			"componentType":5126,
			"count":432372,
			"type":"VEC3"
		},
		{
			"bufferView":2,
			"componentType":5126,
			"count":432372,
			"type":"VEC2"
		},
		{
			"bufferView":3,
			"componentType":5125,
			"count":716544,
			"type":"SCALAR"
		}
	],
	"bufferViews":[
		{
			"buffer":0,
			"byteLength":5188464,
			"byteOffset":0,
			"target":34962
		},
		{
			"buffer":0,
			"byteLength":5188464,
			"byteOffset":5188464,
			"target":34962
		},
		{
			"buffer":0,
			"byteLength":3458976,
			"byteOffset":10376928,
			"target":34962
		},
		{
			"buffer":0,
			"byteLength":2866176,
			"byteOffset":13835904,
			"target":34963
		}
	],
	"samplers":[
		{
			"magFilter":9729,
			"minFilter":9987
		}
	],
	"buffers":[
		{
			"byteLength":16702080,
			"uri":"dumpster.bin"
		}
	]
}
