{
	"asset":{
		"generator":"Khronos glTF Blender I/O v5.0.21",
		"version":"2.0"
	},
	"scene":0,
	"scenes":[
		{
			"name":"Scene",
			"nodes":[
				0,
				1,
				2
			]
		}
	],
	"nodes":[
		{
			"mesh":0,
			"name":"Cube",
			"translation":[
				0,
				0.8999999761581421,
				0
			]
		},
		{
			"mesh":1,
			"name":"Cube.001",
			"rotation":[
				0,
				0,
				0.1262684464454651,
				0.9919961094856262
			],
			"translation":[
				-0.26591092348098755,
				3.1020963191986084,
				-1
			]
		},
		{
			"mesh":2,
			"name":"Cube.002",
			"rotation":[
				-0.37789687514305115,
				-0.9258477091789246,
				0,
				1.3465979975535447e-07
			],
			"translation":[
				0.8203009366989136,
				3.7537271976470947,
				1
			]
		}
	],
	"materials":[
		{
			"doubleSided":true,
			"name":"Material",
			"pbrMetallicRoughness":{
				"baseColorTexture":{
					"index":0
				},
				"metallicFactor":0,
				"roughnessFactor":0.4227272868156433
			}
		},
		{
			"doubleSided":true,
			"name":"Material.001",
			"pbrMetallicRoughness":{
				"baseColorTexture":{
					"index":1
				},
				"metallicFactor":0,
				"roughnessFactor":0.5
			}
		},
		{
			"doubleSided":true,
			"name":"Material.002",
			"pbrMetallicRoughness":{
				"baseColorTexture":{
					"index":2
				},
				"metallicFactor":0,
				"roughnessFactor":0.5
			}
		}
	],
	"meshes":[
		{
			"name":"Cube",
			"primitives":[
				{
					"attributes":{
						"POSITION":0,
						"NORMAL":1,
						"TEXCOORD_0":2
					},
					"indices":3,
					"material":0
				}
			]
		},
		{
			"name":"Cube.001",
			"primitives":[
				{
					"attributes":{
						"POSITION":4,
						"NORMAL":5,
						"TEXCOORD_0":6
					},
					"indices":7,
					"material":1
				}
			]
		},
		{
			"name":"Cube.002",
			"primitives":[
				{
					"attributes":{
						"POSITION":8,
						"NORMAL":9,
						"TEXCOORD_0":10
					},
					"indices":7,
					"material":2
				}
			]
		}
	],
	"textures":[
		{
			"sampler":0,
			"source":0
		},
		{
			"sampler":0,
			"source":1
		},
		{
			"sampler":0,
			"source":2
		}
	],
	"images":[
		{
			"mimeType":"image/png",
			"name":"Material-Base-Color",
			"uri":"textures/Material-Base-Color.png"
		},
		{
			"mimeType":"image/png",
			"name":"lid-top",
			"uri":"textures/lid-top.png"
		},
		{
			"mimeType":"image/png",
			"name":"lid-top2",
			"uri":"textures/lid-top2.png"
		}
	],
	"accessors":[
		{
			"bufferView":0,
			"componentType":5126,
			"count":1736,
			"max":[
				1,
				1.5,
				2.0152220726013184
			],
			"min":[
				-1.015778660774231,
				-1,
				-2
			],
			"type":"VEC3"
		},
		{
			"bufferView":1,
			"componentType":5126,
			"count":1736,
			"type":"VEC3"
		},
		{
			"bufferView":2,
			"componentType":5126,
			"count":1736,
			"type":"VEC2"
		},
		{
			"bufferView":3,
			"componentType":5123,
			"count":2580,
			"type":"SCALAR"
		},
		{
			"bufferView":4,
			"componentType":5126,
			"count":108,
			"max":[
				1,
				-0.7999999523162842,
				1
			],
			"min":[
				-1,
				-1,
				-1
			],
			"type":"VEC3"
		},
		{
			"bufferView":5,
			"componentType":5126,
			"count":108,
			"type":"VEC3"
		},
		{
			"bufferView":6,
			"componentType":5126,
			"count":108,
			"type":"VEC2"
		},
		{
			"bufferView":7,
			"componentType":5123,
			"count":204,
			"type":"SCALAR"
		},
		{
			"bufferView":8,
			"componentType":5126,
			"count":108,
			"max":[
				1,
				-0.7999999523162842,
				1
			],
			"min":[
				-1,
				-1,
				-1
			],
			"type":"VEC3"
		},
		{
			"bufferView":9,
			"componentType":5126,
			"count":108,
			"type":"VEC3"
		},
		{
			"bufferView":10,
			"componentType":5126,
			"count":108,
			"type":"VEC2"
		}
	],
	"bufferViews":[
		{
			"buffer":0,
			"byteLength":20832,
			"byteOffset":0,
			"target":34962
		},
		{
			"buffer":0,
			"byteLength":20832,
			"byteOffset":20832,
			"target":34962
		},
		{
			"buffer":0,
			"byteLength":13888,
			"byteOffset":41664,
			"target":34962
		},
		{
			"buffer":0,
			"byteLength":5160,
			"byteOffset":55552,
			"target":34963
		},
		{
			"buffer":0,
			"byteLength":1296,
			"byteOffset":60712,
			"target":34962
		},
		{
			"buffer":0,
			"byteLength":1296,
			"byteOffset":62008,
			"target":34962
		},
		{
			"buffer":0,
			"byteLength":864,
			"byteOffset":63304,
			"target":34962
		},
		{
			"buffer":0,
			"byteLength":408,
			"byteOffset":64168,
			"target":34963
		},
		{
			"buffer":0,
			"byteLength":1296,
			"byteOffset":64576,
			"target":34962
		},
		{
			"buffer":0,
			"byteLength":1296,
			"byteOffset":65872,
			"target":34962
		},
		{
			"buffer":0,
			"byteLength":864,
			"byteOffset":67168,
			"target":34962
		}
	],
	"samplers":[
		{
			"magFilter":9729,
			"minFilter":9987
		}
	],
	"buffers":[
		{
			"byteLength":68032,
			"uri":"dumpster.bin"
		}
	]
}
