{
	"asset":{
		"generator":"Khronos glTF Blender I/O v5.0.21",
		"version":"2.0"
	},
	"scene":0,
	"scenes":[
		{
			"name":"Scene",
			"nodes":[
				0,
				1
			]
		}
	],
	"nodes":[
		{
			"mesh":0,
			"name":"Glove",
			"translation":[
				0.12185542285442352,
				0.1672920435667038,
				7.2335991859436035
			]
		},
		{
			"mesh":1,
			"name":"Cube",
			"rotation":[
				0,
				0.3826834559440613,
				0,
				0.9238795638084412
			],
			"translation":[
				0.007004812825471163,
				0.4646942913532257,
				-0.6306261420249939
			]
		}
	],
	"materials":[
		{
			"doubleSided":true,
			"name":"Material",
			"pbrMetallicRoughness":{
				"baseColorTexture":{
					"index":0
				},
				"metallicFactor":0,
				"roughnessFactor":0.8095238208770752
			}
		},
		{
			"doubleSided":true,
			"name":"Material.001",
			"pbrMetallicRoughness":{
				"baseColorTexture":{
					"index":1
				},
				"roughnessFactor":0.5
			}
		}
	],
	"meshes":[
		{
			"name":"Cube",
			"primitives":[
				{
					"attributes":{
						"POSITION":0,
						"NORMAL":1,
						"TEXCOORD_0":2
					},
					"indices":3,
					"material":0
				}
			]
		},
		{
			"name":"Cube.001",
			"primitives":[
				{
					"attributes":{
						"POSITION":4,
						"NORMAL":5,
						"TEXCOORD_0":6
					},
					"indices":7,
					"material":1
				}
			]
		}
	],
	"textures":[
		{
			"sampler":0,
			"source":0
		},
		{
			"sampler":0,
			"source":1
		}
	],
	"images":[
		{
			"mimeType":"image/png",
			"name":"Material_Base_Color",
			"uri":"textures/Material_Base_Color.png"
		},
		{
			"mimeType":"image/png",
			"name":"Material",
			"uri":"textures/Material.png"
		}
	],
	"accessors":[
		{
			"bufferView":0,
			"componentType":5126,
			"count":761,
			"max":[
				1.3732160329818726,
				0.8327080011367798,
				1.4928958415985107
			],
			"min":[
				-1.0801888704299927,
				-1.1095713376998901,
				-1.7297322750091553
			],
			"type":"VEC3"
		},
		{
			"bufferView":1,
			"componentType":5126,
			"count":761,
			"type":"VEC3"
		},
		{
			"bufferView":2,
			"componentType":5126,
			"count":761,
			"type":"VEC2"
		},
		{
			"bufferView":3,
			"componentType":5123,
			"count":4272,
			"type":"SCALAR"
		},
		{
			"bufferView":4,
			"componentType":5126,
			"count":23680,
			"max":[
				5.069860935211182,
				0.10030905902385712,
				5.060233116149902
			],
			"min":[
				-5.070138454437256,
				-0.0996909886598587,
				-5.05976676940918
			],
			"type":"VEC3"
		},
		{
			"bufferView":5,
			"componentType":5126,
			"count":23680,
			"type":"VEC3"
		},
		{
			"bufferView":6,
			"componentType":5126,
			"count":23680,
			"type":"VEC2"
		},
		{
			"bufferView":7,
			"componentType":5123,
			"count":47280,
			"type":"SCALAR"
		}
	],
	"bufferViews":[
		{
			"buffer":0,
			"byteLength":9132,
			"byteOffset":0,
			"target":34962
		},
		{
			"buffer":0,
			"byteLength":9132,
			"byteOffset":9132,
			"target":34962
		},
		{
			"buffer":0,
			"byteLength":6088,
			"byteOffset":18264,
			"target":34962
		},
		{
			"buffer":0,
			"byteLength":8544,
			"byteOffset":24352,
			"target":34963
		},
		{
			"buffer":0,
			"byteLength":284160,
			"byteOffset":32896,
			"target":34962
		},
		{
			"buffer":0,
			"byteLength":284160,
			"byteOffset":317056,
			"target":34962
		},
		{
			"buffer":0,
			"byteLength":189440,
			"byteOffset":601216,
			"target":34962
		},
		{
			"buffer":0,
			"byteLength":94560,
			"byteOffset":790656,
			"target":34963
		}
	],
	"samplers":[
		{
			"magFilter":9729,
			"minFilter":9987
		}
	],
	"buffers":[
		{
			"byteLength":885216,
			"uri":"spring_glove.bin"
		}
	]
}
