{
	"asset":{
		"generator":"Khronos glTF Blender I/O v5.0.21",
		"version":"2.0"
	},
	"scene":0,
	"scenes":[
		{
			"name":"Scene",
			"nodes":[
				0
			]
		}
	],
	"nodes":[
		{
			"mesh":0,
			"name":"Cube.001"
		}
	],
	"materials":[
		{
			"doubleSided":true,
			"name":"Material.001",
			"pbrMetallicRoughness":{
				"baseColorTexture":{
					"index":0
				},
				"metallicFactor":0,
				"roughnessFactor":0.5
			}
		}
	],
	"meshes":[
		{
			"name":"Cube.002",
			"primitives":[
				{
					"attributes":{
						"POSITION":0,
						"NORMAL":1,
						"TEXCOORD_0":2
					},
					"indices":3,
					"material":0
				}
			]
		}
	],
	"textures":[
		{
			"sampler":0,
			"source":0
		}
	],
	"images":[
		{
			"mimeType":"image/png",
			"name":"Cube",
			"uri":"textures/Cube.png"
		}
	],
	"accessors":[
		{
			"bufferView":0,
			"componentType":5126,
			"count":14681,
			"max":[
				0.044060152024030685,
				0.7104149460792542,
				1.995937705039978
			],
			"min":[
				-0.06395741552114487,
				-0.7887487411499023,
				-1.9958338737487793
			],
			"type":"VEC3"
		},
		{
			"bufferView":1,
			"componentType":5126,
			"count":14681,
			"type":"VEC3"
		},
		{
			"bufferView":2,
			"componentType":5126,
			"count":14681,
			"type":"VEC2"
		},
		{
			"bufferView":3,
			"componentType":5123,
			"count":29952,
			"type":"SCALAR"
		}
	],
	"bufferViews":[
		{
			"buffer":0,
			"byteLength":176172,
			"byteOffset":0,
			"target":34962
		},
		{
			"buffer":0,
			"byteLength":176172,
			"byteOffset":176172,
			"target":34962
		},
		{
			"buffer":0,
			"byteLength":117448,
			"byteOffset":352344,
			"target":34962
		},
		{
			"buffer":0,
			"byteLength":59904,
			"byteOffset":469792,
			"target":34963
		}
	],
	"samplers":[
		{
			"magFilter":9729,
			"minFilter":9987
		}
	],
	"buffers":[
		{
			"byteLength":529696,
			"uri":"finishline.bin"
		}
	]
}
