{
	"asset":{
		"generator":"Khronos glTF Blender I/O v5.0.21",
		"version":"2.0"
	},
	"scene":0,
	"scenes":[
		{
			"name":"Scene",
			"nodes":[
				0
			]
		}
	],
	"nodes":[
		{
			"mesh":0,
			"name":"Car",
			"rotation":[
				0,
				-1,
				0,
				4.371138828673793e-08
			]
		}
	],
	"materials":[
		{
			"doubleSided":true,
			"name":"Material",
			"pbrMetallicRoughness":{
				"baseColorTexture":{
					"index":0
				},
				"metallicFactor":0,
				"roughnessFactor":0.5
			}
		}
	],
	"meshes":[
		{
			"name":"Cube",
			"primitives":[
				{
					"attributes":{
						"POSITION":0,
						"NORMAL":1,
						"TEXCOORD_0":2,
						"COLOR_0":3,
						"COLOR_1":4
					},
					"indices":5,
					"material":0
				}
			]
		}
	],
	"textures":[
		{
			"sampler":0,
			"source":0
		}
	],
	"images":[
		{
			"mimeType":"image/png",
			"name":"Car_Base_Color_Red",
			"uri":"textures/Car_Base_Color_Red.png"
		}
	],
	"accessors":[
		{
			"bufferView":0,
			"componentType":5126,
			"count":3430,
			"max":[
				2.0887222290039062,
				3.198199987411499,
				5.649311065673828
			],
			"min":[
				-2.0887222290039062,
				-0.6362507343292236,
				-5.164580821990967
			],
			"type":"VEC3"
		},
		{
			"bufferView":1,
			"componentType":5126,
			"count":3430,
			"type":"VEC3"
		},
		{
			"bufferView":2,
			"componentType":5126,
			"count":3430,
			"type":"VEC2"
		},
		{
			"bufferView":3,
			"componentType":5121,
			"count":3430,
			"normalized":true,
			"type":"VEC4"
		},
		{
			"bufferView":4,
			"componentType":5123,
			"count":3430,
			"normalized":true,
			"type":"VEC4"
		},
		{
			"bufferView":5,
			"componentType":5123,
			"count":5736,
			"type":"SCALAR"
		}
	],
	"bufferViews":[
		{
			"buffer":0,
			"byteLength":41160,
			"byteOffset":0,
			"target":34962
		},
		{
			"buffer":0,
			"byteLength":41160,
			"byteOffset":41160,
			"target":34962
		},
		{
			"buffer":0,
			"byteLength":27440,
			"byteOffset":82320,
			"target":34962
		},
		{
			"buffer":0,
			"byteLength":13720,
			"byteOffset":109760,
			"target":34962
		},
		{
			"buffer":0,
			"byteLength":27440,
			"byteOffset":123480,
			"target":34962
		},
		{
			"buffer":0,
			"byteLength":11472,
			"byteOffset":150920,
			"target":34963
		}
	],
	"samplers":[
		{
			"magFilter":9729,
			"minFilter":9987
		}
	],
	"buffers":[
		{
			"byteLength":162392,
			"uri":"car.bin"
		}
	]
}
